<svg width="24" height="22" viewBox="0 0 24 22" fill="none" xmlns="http://www.w3.org/2000/svg">
<path d="M11.5607 0.93934C12.1464 1.52513 12.1464 2.47487 11.5607 3.06066L5.12132 9.5H22.5C23.3284 9.5 24 10.1716 24 11C24 11.8284 23.3284 12.5 22.5 12.5H5.12132L11.5607 18.9393C12.1464 19.5251 12.1464 20.4749 11.5607 21.0607C10.9749 21.6464 10.0251 21.6464 9.43934 21.0607L0.43934 12.0607C0.158035 11.7794 0 11.3978 0 11C0 10.6022 0.158035 10.2206 0.43934 9.93934L9.43934 0.93934C10.0251 0.353553 10.9749 0.353553 11.5607 0.93934Z" fill="white"/>
</svg>
