<svg width="24" height="25" viewBox="0 0 24 25" fill="none" xmlns="http://www.w3.org/2000/svg">
<path d="M12.2929 5.99944C12.6834 5.60891 13.3166 5.60891 13.7071 5.99944L19.7071 11.9994C20.0976 12.39 20.0976 13.0231 19.7071 13.4137L13.7071 19.4136C13.3166 19.8042 12.6834 19.8042 12.2929 19.4136C11.9024 19.0231 11.9024 18.39 12.2929 17.9994L17.5858 12.7065L12.2929 7.41365C11.9024 7.02313 11.9024 6.38996 12.2929 5.99944ZM6.29289 5.99944C6.68342 5.60891 7.31658 5.60891 7.70711 5.99944L13.7071 11.9994C13.8946 12.187 14 12.4413 14 12.7065C14 12.9718 13.8946 13.2261 13.7071 13.4137L7.70711 19.4136C7.31658 19.8042 6.68342 19.8042 6.29289 19.4136C5.90237 19.0231 5.90237 18.39 6.29289 17.9994L11.5858 12.7065L6.29289 7.41365C5.90237 7.02313 5.90237 6.38996 6.29289 5.99944Z" fill="current"/>
</svg>
