<svg width="24" height="25" viewBox="0 0 24 25" fill="none" xmlns="http://www.w3.org/2000/svg">
<path d="M17.7071 5.99944C18.0976 6.38996 18.0976 7.02313 17.7071 7.41365L12.4142 12.7065L17.7071 17.9994C18.0976 18.39 18.0976 19.0231 17.7071 19.4136C17.3166 19.8042 16.6834 19.8042 16.2929 19.4136L10.2929 13.4136C9.90237 13.0231 9.90237 12.39 10.2929 11.9994L16.2929 5.99944C16.6834 5.60891 17.3166 5.60891 17.7071 5.99944ZM11.7071 5.99944C12.0976 6.38996 12.0976 7.02313 11.7071 7.41365L6.41421 12.7065L11.7071 17.9994C12.0976 18.39 12.0976 19.0231 11.7071 19.4136C11.3166 19.8042 10.6834 19.8042 10.2929 19.4136L4.29289 13.4136C4.10536 13.2261 4 12.9718 4 12.7065C4 12.4413 4.10536 12.187 4.29289 11.9994L10.2929 5.99944C10.6834 5.60891 11.3166 5.60891 11.7071 5.99944Z" fill="current"/>
</svg>
